<svg xmlns="http://www.w3.org/2000/svg" xmlns:xlink="http://www.w3.org/1999/xlink" width="76" height="76" viewBox="0 0 76 76">
    <defs>
        <linearGradient id="c" x1="50%" x2="50%" y1="0%" y2="418.755%">
            <stop offset="0%" stop-color="#FFF"/>
            <stop offset="100%" stop-color="#879CC0"/>
        </linearGradient>
        <ellipse id="b" cx="37.744" cy="38" rx="37.744" ry="38"/>
        <filter id="a" width="202%" height="201.3%" x="-49.7%" y="-48%" filterUnits="objectBoundingBox">
            <feOffset dx="1" dy="2" in="SourceAlpha" result="shadowOffsetOuter1"/>
            <feGaussianBlur in="shadowOffsetOuter1" result="shadowBlurOuter1" stdDeviation="12.5"/>
            <feColorMatrix in="shadowBlurOuter1" values="0 0 0 0 0.267425519 0 0 0 0 0 0 0 0 0 0.328417304 0 0 0 0 0"/>
        </filter>
    </defs>
    <g fill="none" fill-rule="evenodd">
        <g>
            <use fill="#000" filter="url(#a)" xlink:href="#b"/>
            <use fill="url(#c)" xlink:href="#b"/>
        </g>
        <g stroke="#83139E" stroke-linecap="round" stroke-linejoin="round" stroke-width="2">
            <path d="M19.615 57.026l-1.158-1.164a1.573 1.573 0 0 1 0-2.218l27.19-27.341a1.554 1.554 0 0 1 2.206 0l1.159 1.163c.609.613.609 1.607 0 2.22L21.82 57.025a1.554 1.554 0 0 1-2.206 0zM40.62 31.333l3.363 3.382M57 21.922c-2.145.457-3.445 1.764-3.9 3.921-.455-2.157-1.755-3.464-3.9-3.921 2.145-.458 3.445-1.765 3.9-3.922.455 2.157 1.755 3.464 3.9 3.922zM53.88 43.882c-3.003.641-4.824 2.47-5.46 5.49-.636-3.02-2.457-4.849-5.46-5.49 3.003-.64 4.824-2.47 5.46-5.49.636 3.02 2.457 4.85 5.46 5.49zM36.72 24.275c-3.432.731-5.511 2.823-6.24 6.274-.729-3.451-2.808-5.543-6.24-6.274 3.432-.732 5.511-2.824 6.24-6.275.729 3.451 2.808 5.543 6.24 6.275z"/>
        </g>
    </g>
</svg>
