<svg xmlns="http://www.w3.org/2000/svg" xmlns:xlink="http://www.w3.org/1999/xlink" width="76" height="76" viewBox="0 0 76 76">
    <defs>
        <linearGradient id="c" x1="50%" x2="50%" y1="0%" y2="418.755%">
            <stop offset="0%" stop-color="#FFF"/>
            <stop offset="100%" stop-color="#879CC0"/>
        </linearGradient>
        <ellipse id="b" cx="37.744" cy="38" rx="37.744" ry="38"/>
        <filter id="a" width="202%" height="201.3%" x="-49.7%" y="-48%" filterUnits="objectBoundingBox">
            <feOffset dx="1" dy="2" in="SourceAlpha" result="shadowOffsetOuter1"/>
            <feGaussianBlur in="shadowOffsetOuter1" result="shadowBlurOuter1" stdDeviation="12.5"/>
            <feColorMatrix in="shadowBlurOuter1" values="0 0 0 0 0.267425519 0 0 0 0 0 0 0 0 0 0.328417304 0 0 0 0 0"/>
        </filter>
    </defs>
    <g fill="none" fill-rule="evenodd">
        <g>
            <use fill="#000" filter="url(#a)" xlink:href="#b"/>
            <use fill="url(#c)" xlink:href="#b"/>
        </g>
        <g stroke="#83139E" stroke-linecap="round" stroke-linejoin="round" stroke-width="1.7">
            <path d="M55.815 53h-36.63C17.426 53 16 51.586 16 49.842V26.158C16 24.414 17.426 23 19.185 23h36.63C57.574 23 59 24.414 59 26.158v23.684C59 51.586 57.574 53 55.815 53z"/>
            <path d="M21.574 46.369s.265-.845 1.586-1.671c.861-.54 2.188-1.29 3.84-1.58a.485.485 0 0 0 .41-.496 16.964 16.964 0 0 1-.011-.84c0-.722-.818-1.486-.862-2.432-.271-.56-.428-1.116-.428-1.546 0-.283.07-.468.193-.591-.066-.352-.123-.724-.193-1.108-.276-1.528.254-2.455 1.592-3.051.25-.112.061-1.603.337-1.339.76.732 2.806 1.084 3.299 1.257 1.365.48 1.908 1.591 1.628 3.133-.07.384-.127.756-.193 1.108.122.123.193.308.193.59 0 .431-.157.988-.428 1.547-.044.946-.862 1.758-.862 2.431.002.294.002.576-.01.841a.485.485 0 0 0 .408.495c1.653.291 3.233 1.105 3.842 1.58 1.054.827 1.585 1.672 1.585 1.672"/>
            <path d="M36.704 46.684H22.37c-.879 0-1.592-.707-1.592-1.579v-14.21c0-.872.713-1.58 1.592-1.58h14.334c.879 0 1.592.708 1.592 1.58v14.21c0 .872-.713 1.58-1.592 1.58zM41.481 43.526h12.741M41.481 40.368h2.39M47.056 40.368h3.185M41.481 34.053h12.741M41.481 30.895h7.167"/>
        </g>
    </g>
</svg>
