<svg xmlns="http://www.w3.org/2000/svg" xmlns:xlink="http://www.w3.org/1999/xlink" width="76" height="76" viewBox="0 0 76 76">
    <defs>
        <linearGradient id="c" x1="50%" x2="50%" y1="0%" y2="418.755%">
            <stop offset="0%" stop-color="#FFF"/>
            <stop offset="100%" stop-color="#879CC0"/>
        </linearGradient>
        <ellipse id="b" cx="37.744" cy="38" rx="37.744" ry="38"/>
        <filter id="a" width="202%" height="201.3%" x="-49.7%" y="-48%" filterUnits="objectBoundingBox">
            <feOffset dx="1" dy="2" in="SourceAlpha" result="shadowOffsetOuter1"/>
            <feGaussianBlur in="shadowOffsetOuter1" result="shadowBlurOuter1" stdDeviation="12.5"/>
            <feColorMatrix in="shadowBlurOuter1" values="0 0 0 0 0.267425519 0 0 0 0 0 0 0 0 0 0.328417304 0 0 0 0 0"/>
        </filter>
    </defs>
    <g fill="none" fill-rule="evenodd">
        <g transform="translate(.5)">
            <use fill="#000" filter="url(#a)" xlink:href="#b"/>
            <use fill="url(#c)" xlink:href="#b"/>
        </g>
        <g stroke="#83139E" stroke-linecap="round" stroke-linejoin="round" stroke-width="1.5">
            <path d="M35.123 53.18v5.788M38 53.18v5.788M40.877 52.975v5.772M32.246 52.975v5.772M43.754 52.485v5.793M29.368 52.485v5.793M46.632 51.727v5.793M26.491 51.727v5.793M49.509 50.585v5.793M23.614 50.585v5.793M52.386 48.81v5.813M20.737 48.81v5.813"/>
            <g>
                <path d="M39.439 50.31c-10.329 0-18.702-4.214-18.702-9.413v-2.119c-1.82 1.453-2.877 3.171-2.877 5.015v5.793c0 5.2 8.373 9.414 18.701 9.414 10.329 0 18.702-4.214 18.702-9.414v-3.675c-3.311 2.643-9.159 4.4-15.824 4.4zM55.263 26.414c0 5.2-8.373 9.414-18.702 9.414-10.328 0-18.701-4.215-18.701-9.414 0-5.2 8.373-9.414 18.701-9.414 10.329 0 18.702 4.214 18.702 9.414z"/>
                <path d="M17.86 26.414v5.793c0 5.2 8.373 9.414 18.701 9.414 10.329 0 18.702-4.215 18.702-9.414v-5.793M35.123 35.8v5.789M38 35.8v5.789M40.877 35.596v5.772M32.246 35.596v5.772M43.754 35.106v5.793M29.368 35.106v5.793M46.632 34.348v5.793M26.491 34.348v5.793M49.509 33.206v5.793M23.614 33.206v5.793M52.386 31.43v5.814M20.737 31.43v5.814M17.86 43.793c0 5.2 8.373 9.414 18.701 9.414 8.467 0 15.615-2.833 17.919-6.717M40.877 44.49v5.788M38 44.49v5.788M35.123 44.286v5.772M43.754 44.286v5.772M32.246 43.795v5.793M46.632 43.795v5.793M29.368 43.037v5.793M49.509 43.037v5.793M26.491 41.895v5.794M52.386 41.895v5.794M23.614 40.12v5.813M55.263 40.12v5.813"/>
                <path d="M36.561 41.62c10.329 0 18.702-4.214 18.702-9.413v-2.118c1.82 1.452 2.877 3.17 2.877 5.014v5.794c0 5.199-8.373 9.413-18.701 9.413-10.329 0-18.702-4.214-18.702-9.413v-3.675c3.311 2.642 9.159 4.399 15.824 4.399z"/>
                <path d="M58.14 35.103c0 5.2-8.373 9.414-18.701 9.414-8.467 0-15.615-2.833-17.92-6.717M52.386 26.414c0 3.6-7.085 6.517-15.825 6.517-8.74 0-15.824-2.918-15.824-6.517 0-3.6 7.085-6.517 15.824-6.517 8.74 0 15.825 2.917 15.825 6.517z"/>
            </g>
        </g>
    </g>
</svg>
