<svg xmlns="http://www.w3.org/2000/svg" width="203" height="61" viewBox="0 0 203 61">
    <defs>
        <linearGradient id="a" x1="90.769%" x2="-38.331%" y1="4.84%" y2="71.968%">
            <stop offset="0%" stop-color="#00A0FF"/>
            <stop offset=".7%" stop-color="#00A1FF"/>
            <stop offset="26%" stop-color="#00BEFF"/>
            <stop offset="51.2%" stop-color="#00D2FF"/>
            <stop offset="76%" stop-color="#00DFFF"/>
            <stop offset="100%" stop-color="#00E3FF"/>
        </linearGradient>
        <linearGradient id="b" x1="107.724%" x2="-130.67%" y1="49.424%" y2="49.424%">
            <stop offset="0%" stop-color="#FFE000"/>
            <stop offset="40.9%" stop-color="#FFBD00"/>
            <stop offset="77.5%" stop-color="#FFA500"/>
            <stop offset="100%" stop-color="#FF9C00"/>
        </linearGradient>
        <linearGradient id="c" x1="86.389%" x2="-49.886%" y1="17.814%" y2="194.39%">
            <stop offset="0%" stop-color="#FF3A44"/>
            <stop offset="100%" stop-color="#C31162"/>
        </linearGradient>
        <linearGradient id="d" x1="-18.581%" x2="42.275%" y1="-54.528%" y2="24.692%">
            <stop offset="0%" stop-color="#32A071"/>
            <stop offset="6.9%" stop-color="#2DA771"/>
            <stop offset="47.6%" stop-color="#15CF74"/>
            <stop offset="80.1%" stop-color="#06E775"/>
            <stop offset="100%" stop-color="#00F076"/>
        </linearGradient>
    </defs>
    <g fill="none" fill-rule="nonzero">
        <path fill="#000" d="M195.481 61H7.52C3.309 61 0 57.645 0 53.375V7.625C0 3.355 3.308 0 7.519 0H195.48C199.691 0 203 3.355 203 7.625v45.75c0 4.27-3.308 7.625-7.519 7.625z"/>
        <path fill="#A6A6A6" d="M195.481 1.22c3.459 0 6.316 2.897 6.316 6.405v45.75c0 3.508-2.857 6.405-6.316 6.405H7.52c-3.459 0-6.316-2.898-6.316-6.405V7.625c0-3.508 2.857-6.405 6.316-6.405H195.48zm0-1.22H7.52C3.309 0 0 3.507 0 7.625v45.75C0 57.645 3.308 61 7.519 61H195.48c4.21 0 7.519-3.355 7.519-7.625V7.625C203 3.508 199.692 0 195.481 0z"/>
        <path fill="#FFF" stroke="#FFF" stroke-width=".2" d="M71.276 15.555c0 1.22-.301 2.288-1.053 3.05-.902.915-1.955 1.372-3.308 1.372-1.354 0-2.406-.457-3.308-1.372-.903-.915-1.354-1.983-1.354-3.355 0-1.373.451-2.44 1.354-3.355.902-.915 1.954-1.372 3.308-1.372.601 0 1.203.152 1.804.457.602.305 1.053.61 1.354 1.067l-.752.763c-.602-.763-1.354-1.068-2.406-1.068-.902 0-1.805.305-2.406 1.068-.752.61-1.053 1.525-1.053 2.592 0 1.068.301 1.983 1.053 2.593.752.61 1.504 1.067 2.406 1.067 1.052 0 1.804-.305 2.556-1.067a2.543 2.543 0 0 0 .752-1.83h-3.308v-1.22h4.36v.61zm6.917-3.813h-4.06v2.898h3.759v1.067h-3.76v2.898h4.06v1.22H72.93v-9.15h5.263v1.067zm4.962 8.083h-1.203v-8.082h-2.556v-1.068h6.315v1.067h-2.556v8.083zm6.917 0v-9.15h1.203v9.15h-1.203zm6.315 0h-1.203v-8.082h-2.556v-1.068h6.165v1.067h-2.556v8.083h.15zm14.286-1.22c-.903.915-1.955 1.372-3.309 1.372-1.353 0-2.405-.457-3.308-1.372-.902-.915-1.353-1.983-1.353-3.355 0-1.373.451-2.44 1.353-3.355.903-.915 1.955-1.372 3.308-1.372 1.354 0 2.406.457 3.309 1.372.902.915 1.353 1.982 1.353 3.355 0 1.372-.451 2.44-1.353 3.355zm-5.714-.762c.601.61 1.503 1.067 2.405 1.067.903 0 1.805-.305 2.406-1.067a3.705 3.705 0 0 0 1.053-2.593c0-1.068-.3-1.982-1.053-2.592-.601-.61-1.503-1.068-2.406-1.068-.902 0-1.804.305-2.405 1.068a3.705 3.705 0 0 0-1.053 2.592c0 1.067.3 1.983 1.053 2.593zm8.721 1.982v-9.15h1.353l4.361 7.168v-7.168h1.203v9.15h-1.203l-4.661-7.473v7.473h-1.053z"/>
        <path fill="#FFF" d="M102.402 33.245c-3.609 0-6.466 2.745-6.466 6.558 0 3.66 2.857 6.557 6.466 6.557 3.61 0 6.466-2.745 6.466-6.557 0-3.965-2.857-6.558-6.466-6.558zm0 10.37c-1.955 0-3.609-1.678-3.609-3.965 0-2.288 1.654-3.965 3.61-3.965 1.954 0 3.608 1.525 3.608 3.965 0 2.288-1.654 3.965-3.609 3.965zm-13.984-10.37c-3.61 0-6.466 2.745-6.466 6.558 0 3.66 2.857 6.557 6.466 6.557s6.466-2.745 6.466-6.557c0-3.965-2.857-6.558-6.466-6.558zm0 10.37c-1.955 0-3.61-1.678-3.61-3.965 0-2.288 1.655-3.965 3.61-3.965 1.955 0 3.609 1.525 3.609 3.965 0 2.288-1.654 3.965-3.61 3.965zm-16.691-8.388v2.745h6.466c-.15 1.526-.752 2.745-1.504 3.508-.902.915-2.406 1.983-4.962 1.983-4.06 0-7.068-3.203-7.068-7.32 0-4.118 3.158-7.32 7.068-7.32 2.105 0 3.759.915 4.962 1.982l1.955-1.982c-1.654-1.526-3.76-2.745-6.767-2.745-5.413 0-10.075 4.575-10.075 10.064 0 5.49 4.662 10.066 10.075 10.066 3.007 0 5.113-.916 6.917-2.898 1.805-1.83 2.406-4.422 2.406-6.405 0-.61 0-1.22-.15-1.678h-9.323zm68.268 2.136c-.602-1.526-2.105-4.118-5.414-4.118-3.308 0-6.014 2.593-6.014 6.558 0 3.66 2.706 6.557 6.315 6.557 2.857 0 4.662-1.83 5.263-2.898l-2.105-1.525c-.752 1.068-1.654 1.83-3.158 1.83-1.503 0-2.406-.61-3.158-1.982l8.572-3.66-.301-.763zm-8.722 2.135c0-2.44 1.955-3.813 3.308-3.813 1.053 0 2.106.61 2.406 1.372l-5.714 2.44zm-7.067 6.252h2.857V26.687h-2.857V45.75zm-4.511-11.133c-.752-.762-1.955-1.524-3.459-1.524-3.157 0-6.165 2.897-6.165 6.557 0 3.66 2.857 6.405 6.165 6.405 1.504 0 2.707-.763 3.308-1.525h.15v.915c0 2.44-1.353 3.813-3.458 3.813-1.654 0-2.857-1.22-3.157-2.288l-2.406 1.068c.751 1.677 2.556 3.812 5.714 3.812 3.308 0 6.014-1.983 6.014-6.71V33.55h-2.706v1.068zm-3.308 8.998c-1.955 0-3.61-1.678-3.61-3.965 0-2.288 1.655-3.965 3.61-3.965 1.954 0 3.458 1.677 3.458 3.965s-1.504 3.965-3.458 3.965zm36.69-16.928h-6.767V45.75h2.857v-7.167h3.91c3.158 0 6.165-2.288 6.165-5.948 0-3.66-3.007-5.947-6.165-5.947zm.15 9.15h-4.06V29.28h4.06c2.106 0 3.309 1.83 3.309 3.203-.15 1.677-1.354 3.355-3.309 3.355zm17.293-2.745c-2.105 0-4.21.916-4.962 2.898l2.556 1.067c.602-1.067 1.504-1.372 2.556-1.372 1.504 0 2.857.915 3.008 2.44v.153c-.451-.306-1.654-.763-2.857-.763-2.707 0-5.414 1.525-5.414 4.27 0 2.593 2.256 4.27 4.662 4.27 1.955 0 2.857-.915 3.609-1.83h.15v1.525h2.707v-7.32c-.3-3.355-2.857-5.337-6.015-5.337zm-.3 10.523c-.903 0-2.256-.458-2.256-1.678 0-1.524 1.654-1.982 3.007-1.982 1.203 0 1.805.305 2.556.61-.3 1.83-1.804 3.05-3.308 3.05zm15.788-10.065l-3.158 8.235h-.15l-3.308-8.235h-3.008l4.963 11.59-2.857 6.405h2.857l7.669-17.995h-3.008zm-25.262 12.2h2.857V26.687h-2.857V45.75z"/>
        <path fill="url(#a)" d="M15.639 11.438c-.452.457-.602 1.22-.602 2.134v33.703c0 .915.3 1.678.752 2.135l.15.153 18.646-18.91v-.305L15.64 11.438z"/>
        <path fill="url(#b)" d="M40.6 37.057l-6.165-6.252v-.457l6.165-6.253.15.152 7.369 4.27c2.105 1.22 2.105 3.203 0 4.423L40.6 37.057z"/>
        <path fill="url(#c)" d="M40.75 36.905L34.435 30.5 15.639 49.563c.751.762 1.804.762 3.157.152l21.954-12.81"/>
        <path fill="url(#d)" d="M40.75 24.095L18.796 11.438c-1.353-.763-2.406-.61-3.157.152L34.435 30.5l6.315-6.405z"/>
        <path fill="#000" d="M40.6 36.752L18.796 49.258c-1.203.763-2.255.61-3.007 0l-.15.153.15.153c.752.61 1.804.762 3.007 0L40.6 36.752z" opacity=".2"/>
        <path fill="#000" d="M15.639 49.258c-.452-.458-.602-1.22-.602-2.136v.153c0 .915.3 1.678.752 2.135v-.152h-.15zm32.48-16.776l-7.519 4.27.15.153 7.369-4.27c1.052-.61 1.503-1.372 1.503-2.135 0 .762-.601 1.372-1.503 1.983z" opacity=".12"/>
        <path fill="#FFF" d="M18.796 11.59L48.12 28.517c.902.61 1.503 1.22 1.503 1.983 0-.762-.45-1.525-1.503-2.135L18.796 11.438c-2.105-1.22-3.759-.306-3.759 2.134v.153c0-2.287 1.654-3.355 3.76-2.135z" opacity=".25"/>
    </g>
</svg>
