<svg xmlns="http://www.w3.org/2000/svg" xmlns:xlink="http://www.w3.org/1999/xlink" viewBox="0 0 461.94 134.52"><defs><style>.cls-1{fill:#26225a;}.cls-2{fill:url(#linear-gradient);}.cls-3{fill:url(#linear-gradient-2);}.cls-4{fill:#fff;}.cls-5{fill:url(#linear-gradient-3);}</style><linearGradient id="linear-gradient" x1="21.42" y1="58.83" x2="103.67" y2="-23.42" gradientUnits="userSpaceOnUse"><stop offset="0" stop-color="#00002e"/><stop offset="1" stop-color="#a93f97"/></linearGradient><linearGradient id="linear-gradient-2" x1="27.46" y1="61.03" x2="109.27" y2="-20.78" xlink:href="#linear-gradient"/><linearGradient id="linear-gradient-3" x1="-81.08" y1="222.2" x2="131.55" y2="9.57" gradientUnits="userSpaceOnUse"><stop offset="0" stop-color="#2e3192"/><stop offset="0.04" stop-color="#343192"/><stop offset="0.27" stop-color="#373192"/><stop offset="0.44" stop-color="#403293"/><stop offset="0.6" stop-color="#503493"/><stop offset="0.74" stop-color="#673794"/><stop offset="0.87" stop-color="#843b95"/><stop offset="0.99" stop-color="#a73f97"/><stop offset="1" stop-color="#a93f97"/></linearGradient></defs><title>Asset 6</title><g id="Layer_2" data-name="Layer 2"><g id="Layer_1-2" data-name="Layer 1"><path class="cls-1" d="M177.24,50.59a1.38,1.38,0,0,1,1.43-1.9H186a1.61,1.61,0,0,1,1.42,1.11l8.25,31.65H196l12.62-32.68a1.27,1.27,0,0,1,1.34-.88h1.43a1.28,1.28,0,0,1,1.35.88l12.69,32.68h.32L233.8,49.8a1.63,1.63,0,0,1,1.43-1.11h7.3a1.38,1.38,0,0,1,1.43,1.9L229,103.9a1.51,1.51,0,0,1-1.42,1.11h-1.27a1.35,1.35,0,0,1-1.35-.87L210.72,68.2h-.4l-14,35.94a1.36,1.36,0,0,1-1.35.87h-1.27a1.52,1.52,0,0,1-1.43-1.11Z"/><path class="cls-1" d="M243.87,102.16l24.67-53.39a1.43,1.43,0,0,1,1.35-.88h.8a1.33,1.33,0,0,1,1.34.88l24.44,53.39a1.4,1.4,0,0,1-1.35,2.06h-6.9a2.28,2.28,0,0,1-2.3-1.59L282,94.06H258.31l-3.89,8.57a2.39,2.39,0,0,1-2.3,1.59h-6.9A1.4,1.4,0,0,1,243.87,102.16Zm34.27-16.9L270.21,67.8H270L262.2,85.26Z"/><path class="cls-1" d="M303.68,50.19a1.51,1.51,0,0,1,1.51-1.5h7.3a1.56,1.56,0,0,1,1.51,1.5V94.7h20.23a1.5,1.5,0,0,1,1.5,1.51v6.5a1.51,1.51,0,0,1-1.5,1.51h-29a1.51,1.51,0,0,1-1.51-1.51Z"/><path class="cls-1" d="M343.74,50.19a1.51,1.51,0,0,1,1.51-1.5h7.3a1.56,1.56,0,0,1,1.51,1.5V94.7h20.23a1.5,1.5,0,0,1,1.5,1.51v6.5a1.51,1.51,0,0,1-1.5,1.51h-29a1.51,1.51,0,0,1-1.51-1.51Z"/><path class="cls-1" d="M383.8,50.19a1.51,1.51,0,0,1,1.51-1.5H417.6a1.51,1.51,0,0,1,1.51,1.5V56.7a1.51,1.51,0,0,1-1.51,1.51H394.12v13h19.59a1.56,1.56,0,0,1,1.51,1.5v6.59a1.51,1.51,0,0,1-1.51,1.51H394.12V94.7H417.6a1.51,1.51,0,0,1,1.51,1.51v6.5a1.51,1.51,0,0,1-1.51,1.51H385.31a1.51,1.51,0,0,1-1.51-1.51Z"/><path class="cls-1" d="M437.9,58.21H425.77a1.51,1.51,0,0,1-1.51-1.51V50.19a1.5,1.5,0,0,1,1.51-1.5h34.66a1.5,1.5,0,0,1,1.51,1.5V56.7a1.51,1.51,0,0,1-1.51,1.51H448.3v44.5a1.57,1.57,0,0,1-1.51,1.51h-7.38a1.57,1.57,0,0,1-1.51-1.51Z"/><path class="cls-2" d="M15.74,20.45H130.12a18.87,18.87,0,0,1,2.84.23V9.22C133,4.15,128,0,122,0H12.78C5.89,0,.29,4.6.07,10.34,1.14,18.64,15.74,20.45,15.74,20.45Z"/><path class="cls-3" d="M.05,28.9c0,7.15,7,13,15.46,13h102c8.51,0,15.46-5.84,15.46-13V20.68a18.87,18.87,0,0,0-2.84-.23H15.74S1.14,18.64.07,10.34c0,.12,0,.24,0,.36Z"/><path class="cls-4" d="M130.58,73c-2.57,0-4.65,1.75-4.65,3.91s2.08,3.91,4.65,3.91,4.66-1.75,4.66-3.91S133.15,73,130.58,73Z"/><path class="cls-5" d="M133,21.73a17.65,17.65,0,0,0-2.84-.23H15.74S1.14,19.69.07,11.39a7.66,7.66,0,0,1-.07-1V121.53c0,7.14,7,13,15.46,13H130.12c8.51,0,15.46-5.85,15.46-13v-87C145.58,28.16,140.12,22.86,133,21.73Z"/><path class="cls-4" d="M76.29,102.26c-.1,2.85-.3,4.37-.61,4.68v.2c-.1.1-.1.1-.1.21l-.2.1v.71l-.21.71a5.1,5.1,0,0,0-.91,1.53,3.94,3.94,0,0,0-1.32,1.32,4,4,0,0,0-1,.51c0,.1-.41.51-1.22.61l-.31.2h-.2a10.41,10.41,0,0,1-4.27.61c-2.14-.1-3.46-.1-3.77-.1-2.44.1-3.46.1-3,.21a19.77,19.77,0,0,1-2.75-.11,5.79,5.79,0,0,0-1.93,0c-.41.11-.51.11-.41.11-.1-.11-.4-.11-.91-.21a9.81,9.81,0,0,1-2.44,0,3.94,3.94,0,0,0-.61-.71,1.93,1.93,0,0,1,0-1.12v-1.83a.31.31,0,0,0,.1-.2c-.1-.1-.1-.1-.1-.21v-3.66l.1-.1a.38.38,0,0,1-.1-.31v-.61a13.86,13.86,0,0,1-.11-2.74c.11-1.12.11-1.63.11-1.73,0-1.12,0-2.75-.11-5a.6.6,0,0,0-.1-.4v-.51a4.74,4.74,0,0,1,.1-1,1.91,1.91,0,0,0,0-1.12c-.1-.1-.1-.41-.2-.92V90.25c.1,0,.1,0,.1-.1v-.3a.63.63,0,0,1,.1-.41c0-.1,0-.1-.1-.2V86.69c.1-2.44.1-4.37.1-5.79,0-.92,0-1.33-.1-1.43v-.2l.1-.31a3.24,3.24,0,0,1,0-1.42c-.1.1-.1-.1-.1-.71V75c0-.3,0-.5.1-.61v.11a1.1,1.1,0,0,0-.1-.51v-.41a27.17,27.17,0,0,0,.1-2.75c-.1-1.93-.1-3-.1-3.35v-.41c.1-.41.1-.51.1-.31,0-.5-.2-2.23-.2-3a23.13,23.13,0,0,0,0-3.76,3.66,3.66,0,0,1,.31-2.34V56.17a1.35,1.35,0,0,0,.1-.51,1.09,1.09,0,0,0-.1-.5V53.63a8.67,8.67,0,0,1-.21-2.44c.1-.31.1-.51,0-.61l-.3-.51-.11-.1c-.1-.21.11-.71.51-1.63a3.08,3.08,0,0,1-.2-1,2.81,2.81,0,0,1,.51-.81l.2-.41c.1-.71.21-1.12.31-1,.51-.4.61-1.12,1.42-1.62.1-.11.21-.11.41-.11s.41,0,.51.11c.1-.11.2-.11.51-.11,0-.1,0-.1.1-.1H54l.51.31c.1.3.21.51.41.51s.3-.61.3-.61c-.2-.11.21-.11,1.23-.11a4.59,4.59,0,0,1,1.11.11,1.24,1.24,0,0,0,.51-.11h.51a4.63,4.63,0,0,1,1,.21c.3-.1.51-.51.61-1h1.83a.4.4,0,0,1,.31.1h.4a.39.39,0,0,0,.31-.1c.4.1,1,.1,1.93.2,0,.11-.3.21-.41.31h-.1a1.28,1.28,0,0,0-.71.41c-.1.3.2.61.71.91L65,44a1.55,1.55,0,0,1,.31-.61c.1-.1.3-.1.61-.1a5.85,5.85,0,0,1,2.74.71l.72.41c.1.1.3,0,.5,0q1.38-.15,1.53,0c.3.1.41.41.41.92-.11-.1,0-.1.51-.21s.81.31,1.12.31a2,2,0,0,0,.5,1,1.73,1.73,0,0,0,0,1c.21.41.41.61.51.61a1,1,0,0,0,.21-.71,2.34,2.34,0,0,0-.21-1.73l-.3-.3v-.21H74c.11-.1.11-.1,0-.2s-.2-.1-.2-.2,0-.41.71-.51,1,1,1.43,2.75c.1,0,.1,0,.1.1v.4c.1,0,.1,0,.1.11v.2a1.09,1.09,0,0,1-.71.61l-.21.3v2a11.42,11.42,0,0,1,.31,2.24c.1.71.1,1.83.2,3.25v1.22a7,7,0,0,0,0,2v1c0,.4-.2,1.52-.2,1.93,0-.31.1,0,.2.91v3.57c-.1.1-.1.1-.2.1l.2.2-.2.31a1.73,1.73,0,0,1,0,1c0,.21-.2,1-.51,2.44a3.58,3.58,0,0,1-.1.92A6.45,6.45,0,0,0,74,73.06h-.1v.21a3.68,3.68,0,0,1-.91.91h-.11l-.3.31h-.2a3.72,3.72,0,0,1-1.63.5c-.1.11-.61.21-.51.92,0,.1.1.2.41.2a.63.63,0,0,0,.51-.2,1.65,1.65,0,0,1,1,0c0,.1.21.31.71.41a7,7,0,0,1,1,.81c-.1.1-.1.1,0,.2l.82.72v.71c.3.3.5.41.71.41,0,0,.1.4.4,1.22.11.81.11,2,.21,3.56.1.1.1.2.1.51V88a33,33,0,0,1,.1,4.27,1.15,1.15,0,0,1-.1.51v.91a1.15,1.15,0,0,1,.1.51v5.9A10.26,10.26,0,0,1,76.29,102.26ZM51.67,52.71a.19.19,0,0,0,0-.3l-.2.3Zm.51,33.78-.71.31a2,2,0,0,0,.71.1c.31,0,.41-.1.41-.31Zm-.51,6.61-.2.72c.1.1.1.2.2.5v1c0,.61.1.92.21,1V94.22a1.54,1.54,0,0,0,.3-.71Zm0-36.42c-.1.21,0,.31.1.31C51.88,56.78,51.77,56.68,51.67,56.68Zm.92,32.86-.41-.3a1,1,0,0,0-.51.61l.31.4c-.1.11-.1.21-.1.41l.3.41c-.1.1-.1.41-.2.71.3-.1.51.31.61.31Zm-.82,8.65a2.89,2.89,0,0,0-.1.92c0,.4.1.71.31.81a1.66,1.66,0,0,0,.2-1,.2.2,0,0,0,.31,0ZM52,73.06c0-.1,0-.2-.1-.2a2.11,2.11,0,0,1-.11.71c.21.2.31.31.41.31A3.13,3.13,0,0,1,52,73.06Zm.61,28.28h-.1a1.1,1.1,0,0,1-.72,1.12,3.27,3.27,0,0,1,.11,1.22l.3.21v-.82a.85.85,0,0,1,.1-.71l.41.31a3.59,3.59,0,0,0,.1-1.22ZM53,104.4c-.31,0-.41.61-.82.51a3.21,3.21,0,0,0-.2-.82c.1.2.1.41-.21.61,0,.1.11.41.21.92a2.6,2.6,0,0,1,1-.1.52.52,0,0,1,.2-.41C53.1,105,53.1,104.7,53,104.4Zm-.41-58.91c0-.1-.1-.1-.2-.1-.11.3-.41,0-.51,1.63,0,.51.1.81.4.91a1,1,0,0,0,.31-1.12Zm13.73,65.72c-.1,0-.61.31-.71.31.1,0,0,0-.3-.1a8.4,8.4,0,0,0-1,.1h-1c-.1-.1-.1-.1,0-.1s.1,0-.41.1a7.93,7.93,0,0,0-2.13-.1.6.6,0,0,0-.61,0,1.15,1.15,0,0,1-.51.1,11.36,11.36,0,0,0-2-.1,7.16,7.16,0,0,1-.71.1h-.81a.9.9,0,0,0-.31-.51v-.1c-.3-.41-.4-.61-.51-.61s-.1.1-.2.2c.1.1.1.1.1.2a.38.38,0,0,1-.1.31,1.41,1.41,0,0,1-1,.51H53.1a1.06,1.06,0,0,1-.51-.31c.1-.51.2-.71.41-.81a5.06,5.06,0,0,1,1.32-.2c.1.1.3,0,.41-.11l-.41-.4a1.24,1.24,0,0,1-.82-.1c-.2.3-.61.4-1.32.3a1.67,1.67,0,0,0-.3.92,1.25,1.25,0,0,0,.3.91c-.1.1.51.1,1.83.2l1.22-.2c.51,0,.82.1.72.2l.3-.2h1a23.9,23.9,0,0,0,2.44.2l.61-.2a3.87,3.87,0,0,0,1.22.2.31.31,0,0,0,.1-.2c.11.1.31.1.61.2,0-.1,0-.1.11-.2a11.77,11.77,0,0,1,1.52.1,6.7,6.7,0,0,0,2.95-.3A1.06,1.06,0,0,0,66.32,111.21Zm-14.14-3.76c-.2.61-.3.91-.2,1s.3-.31.41-.82Zm0-57.28a2,2,0,0,0-.1.71.63.63,0,0,0,.1.41c.21-.1.41-.41.51-1.12Zm.21,27.57h-.21a1.15,1.15,0,0,0,0,.82c.1-.31.41-.41.82-.31C53.1,77.94,52.39,78.05,52.39,77.74ZM53,84a3.9,3.9,0,0,1-.31,1.12.84.84,0,0,0,.71.1.52.52,0,0,0,.41-.51C53.71,84.35,53.4,84.25,53,84Zm.3-2-.3-.4c-.11.1-.11.4-.21.91a3.39,3.39,0,0,0,.82-.1C53.5,82.32,53.4,82.22,53.3,81.91Zm.2-37.23a.93.93,0,0,0-.61.61,2.9,2.9,0,0,0,.82-.21C53.81,44.88,53.71,44.78,53.5,44.68Zm-.4,9.15c.1.11.2,0,.3-.2a.22.22,0,0,0-.2-.2Zm.1,12.11c.3,0,.41-.2.51-.61s-.1-.71-.31-.81A2.25,2.25,0,0,0,53.2,65.94Zm1.22-4.88-.1-.11c0-.81-.1-1.11-.41-1-.1-.1-.41,0-.71.1.1.1.1.41.1.91a1.79,1.79,0,0,1,.71.82,2.27,2.27,0,0,0-.1.91c-.1.21.1.41.41.61.1,0,.2-.4.1-1.32Zm.81,26.35-.5-1a2.46,2.46,0,0,0-1.43.1c0,.31.71,1,.71,1.73h.72a1,1,0,0,1,.3-.51Zm-1.42,8.64a.53.53,0,0,0-.31-.4c0,.1,0,.1-.1.2Zm-.31-41.4c-.1.4-.1.61.11.71C53.71,55.16,53.61,55,53.5,54.65Zm.41-5.8c-.2.1-.3.2-.2.3.4.21.61.11.71-.3A.46.46,0,0,0,53.91,48.85Zm.41,23.7c-.51,0-.71.21-.61.51a.84.84,0,0,0,.61.31,1.42,1.42,0,0,0,.91-.51A.76.76,0,0,0,54.32,72.55ZM54,51.9c-.3.51-.3.81-.2,1,.3.1.41-.21.51-.71Zm0-6c0-.1,0-.1-.1-.1-.1.5-.1.61-.1.3v1c0,.3.1.51.2.51s.21-.31.21-.92A2.43,2.43,0,0,0,54,45.9Zm.31,12.72a.19.19,0,0,0-.31,0,.76.76,0,0,0-.2.5c.3.11.61.11.71,0A.76.76,0,0,0,54.32,58.62Zm.1,31.43H54a2.3,2.3,0,0,0-.1.92c0,.3,0,.51.1.61a5.78,5.78,0,0,0,.72-.92ZM54,100.53c-.1.2-.1.31,0,.41s.31-.1.31-.41,0-.3-.1-.41C54.22,100.23,54.11,100.33,54,100.53Zm0-44.36v.51c.1.1.21.1.51.21A1,1,0,0,0,54,56.17Zm.92-5.69-.2.2h-.21l-.3.2a1.84,1.84,0,0,1,.1.51,4.08,4.08,0,0,0,1.12-.61A1,1,0,0,0,54.93,50.48Zm-.61,18.11a.22.22,0,0,0,.2-.21c0-.2-.1-.2-.2-.1Zm.1,8.74a1.84,1.84,0,0,0-.1.61c0,.21.1.31.2.31v-.2c.1-.11.1-.41.21-.72Zm1,26.56V103c-.1,0-.1,0-.21-.1H55c.1.1,0,.2-.1.31a1.09,1.09,0,0,0,.1.5c-.1.51-.1.61-.1.41a.78.78,0,0,1,.1.51.78.78,0,0,0,.41-.2,1.15,1.15,0,0,0,.1-.51ZM55,57.39v.51a.47.47,0,0,0,.51-.3C55.44,57.6,55.34,57.5,55,57.39Zm.2,47.82-.2.41Zm0-21.26c.31-.1.51-.21.51-.41a5.85,5.85,0,0,0-.51-1.42A4.66,4.66,0,0,0,55.23,84Zm.21-3.56h-.21c-.1.3,0,.51.31.51C55.64,80.59,55.54,80.39,55.44,80.39ZM56.25,72V70.21c0-.1-.1-.1-.2-.1s-.1.2-.1.51a1.26,1.26,0,0,0-.72.41,1.84,1.84,0,0,1,.51,1Zm-.71,21.47a.28.28,0,0,0-.31.31c.51.1.72,0,.82-.21A.46.46,0,0,0,55.54,93.51Zm.81-27.77a.63.63,0,0,0-.61-.51c-.3.71-.4,1.22-.3,1.32Zm-.91,30.62c-.1.61,0,.91.3.91.1,0,.21,0,.21-.1a.81.81,0,0,1-.21-.61c0-.1.72-.1.61-.51A1.66,1.66,0,0,0,55.44,96.36Zm.91,4c0-.31.61-.31.61-.72a.57.57,0,0,0-.61-.1l-.61.31a2.09,2.09,0,0,0,0,1.12c.1.4.1.61.21.51l.61.61.3.4c.1-.1.1-.4.1-1C56.86,101.14,56.25,100.73,56.35,100.33Zm-.4-37a1.63,1.63,0,0,0,.51-1c0-.31-.21-.51-.51-.71a.9.9,0,0,0-.21-.62,2.88,2.88,0,0,0,.1,1.23c.11.5.11.81-.1,1,0-.2.1,0,.21.61a.43.43,0,0,0,0,.51c.2-.4.3-.61.3-.51C56.25,63.7,56,63.6,56,63.29ZM55.74,60l.21-.31a.22.22,0,0,0-.21-.2ZM57,73.57a3.19,3.19,0,0,0-1,.31A2.92,2.92,0,0,0,55.74,75a.78.78,0,0,1,.51-.1Zm.72-21.77A5.71,5.71,0,0,0,56,51c.3,1.53.2,1.63.51,1.73-.11.31.1.92.6,1.94,0-.21-.1,0-.2.51l.61.81a15.68,15.68,0,0,1,.31-4.07C57.68,51.9,57.68,51.9,57.68,51.8ZM56.15,90.56a1.12,1.12,0,0,0-.1.51.79.79,0,0,0,.2.51c.41,0,.61-.51.61-1.53C56.56,90,56.35,90.05,56.15,90.56Zm.1-3.66a.37.37,0,0,0-.1.3,1.81,1.81,0,0,0,.1.61c.21,0,.31-.3.31-.91Zm.51-40.49-.2-.41-.31.51c-.1.2,0,.3.31.3C56.66,46.81,56.76,46.71,56.76,46.41Zm-.41,51.17a.57.57,0,0,0,.31.51C56.76,97.89,56.66,97.68,56.35,97.58Zm.92-18a4.81,4.81,0,0,0-.21-1.22c0-.1-.1-.1-.2-.1a3.71,3.71,0,0,0-.4,1.12l.5.81c-.1.1,0,.41.1.72A6.48,6.48,0,0,0,57.27,79.57ZM56.46,92a3.62,3.62,0,0,0,.2,1C56.76,92.9,56.46,91.88,56.46,92Zm.6,12.42-.4-.21a1.2,1.2,0,0,1-.2.31,12.57,12.57,0,0,1,.2,2.13l.4.11a1.37,1.37,0,0,1-.2-.82c0-.4.1-.61.31-.71C57.06,105.11,57.06,104.8,57.06,104.4Zm-.4-27.27c0,.1.2.31.61.41a.39.39,0,0,1,.1-.31C57.06,77.13,56.76,77,56.66,77.13Zm.71,5.49c0-.91-.2-.91-.31-1h-.2c-.1,1-.2,1.52-.1,1.63l.3.91a.37.37,0,0,0,.11.31A14.78,14.78,0,0,0,57.37,82.62ZM56.76,57.5c0,.2.1.3.3.4s.31.1.41,0C57.57,57.6,57.27,57.5,56.76,57.5Zm1.32,50.25h-.2c-.1.21-.31.31-.41.41-.41-.1-.61,0-.71.1a3.67,3.67,0,0,0,2.34.1C59.1,108.26,58.79,108.06,58.08,107.75Zm-.81-34.69c.3-.1.51-.2.61-.41Zm.51-5.59c-.31-.11-.21-.51-.31-.51a2.83,2.83,0,0,0-.1.91.88.88,0,0,0,.61-.3h.31v-.1Zm.1,1.83c-.1-.21-.2-.31-.41-.31a.78.78,0,0,0-.1.51c.1.1.2.2.31.2A.52.52,0,0,0,57.88,69.3Zm-.41,1.52c.21.1.31,0,.31-.3s0-.41-.21-.41C57.47,70.42,57.37,70.62,57.47,70.82Zm.71,16.69a1.12,1.12,0,0,0-.1-.51,1.62,1.62,0,0,0-.3.81c0,.31.1.41.4.51C58.29,88.22,58.29,88,58.18,87.51Zm0,2.54h-.3l.1.71a.22.22,0,0,0,.2.21Zm-.1,3.66a1.78,1.78,0,0,0,.21-.5c-.11-.11-.11-.21-.21-.21a5.2,5.2,0,0,0-.2.92.63.63,0,0,0,.2.51Zm.21,1c0-.1-.11-.1-.21-.2a2,2,0,0,0-.1.81,3.06,3.06,0,0,0,.2.71c-.1.11-.1.31-.2.61h.1c0,.11-.1.11-.2.21s.1.2.2.3.21-.4.21-1.42Zm-.21,4.58c-.1.1-.2.2-.2.3a.51.51,0,0,0,.41.51A.55.55,0,0,0,58.08,99.31Zm.61,2.54-.2-.81c-.1-.1-.1-.1-.2-.1a4,4,0,0,0-.21,1c-.1.51.1.72.41.72Zm.1-21.67a1.83,1.83,0,0,0-.2-.51c-.1.11-.2.11-.2.21ZM59,49.36c-.1-.1-.21-.21-.21-.31a1.14,1.14,0,0,0,.21.82Zm.41,25.84c-.21,0-.31,0-.41.1,0,.3.2.41.51.51a.48.48,0,0,1,.2-.51A.37.37,0,0,0,59.41,75.2ZM59,105.11a6,6,0,0,0,.1,1.22c.31-.1.51-.31.41-.81a1.26,1.26,0,0,0-.21-.82C59.3,104.8,59.2,104.91,59,105.11Zm.91-57.69a.78.78,0,0,0-.4-.4.78.78,0,0,0-.21.4.52.52,0,0,0,.41.51A.37.37,0,0,0,59.91,47.42Zm5.4,20.86.2-.2v-.21a9.61,9.61,0,0,1,0-2.44c-.41.1-.81-.2-.81-1.12h.5c0,.1,0,.21.11.21s.2-.11.3-.21a4.37,4.37,0,0,0,0-1.63v-.61c-.1,0-.1-.1-.1-.2v-.3c-.1-.11-.1-.31-.1-.62,0,0,0-.4.1-1.32V58.51c.1-.61.1-.81.1-.71a7.61,7.61,0,0,1-.2-1.12,10.25,10.25,0,0,1,.1-2.34c-.1.1-.1-.3-.1-1.42V51.8c0-.2-.21-.51-.71-1h-.21c0-.1-.1-.2-.2-.3-.31,0-1.43,0-3.36-.11l-.3-.4a.8.8,0,0,0-.11-.82h-.3a.61.61,0,0,1-.1.41l.3,1v.71c0,1.22,0,2.34.1,3.36a6.28,6.28,0,0,1,0,2,.39.39,0,0,1-.1.31v.4l.1.11v.3a5,5,0,0,1,.11,1.73c0,.1,0,.1-.11.2v.51a2.33,2.33,0,0,1-.1.92l.21,1.22a18.38,18.38,0,0,0-.11,2.85v2.44c.11,1.42.11,2.54.11,3.46l-.61,1c-.31,0-.61.2-.72.71a4.83,4.83,0,0,0,.92.71c0-.3-.31-.71-.2-1,0,0,.91-.2,2.84-.71a4.14,4.14,0,0,1,.72.2l.4.31c.51,0,.61-.51.92-.51,0-.41-.92-.41-.92-.71s.31-.41.72-.41l.3-.91c.2.1.41,0,.61-.31Zm.4,37.34a1.15,1.15,0,0,0,.1-.51c0-.61-.81-.51-.81-1,0-.3.41-.91.41-1.22l-.1-.2c-.11-.1-.11-.51,0-1.12l.3-1V98.09c.1-.31.1-.31.1-.1a7.88,7.88,0,0,1-.2-1.12V89.24a9.09,9.09,0,0,1,.1-1.94,3,3,0,0,1-.3-1,1.88,1.88,0,0,1-.11-.82c0,.31.11-.2.21-1.52a9.12,9.12,0,0,0,0-2.34c-.1-1.33-.21-1.94-.31-1.73-.3-.31-1.42-.51-3.35-.61h-.41a1.07,1.07,0,0,0-.82-.1,1.15,1.15,0,0,1,0-.82l-.3-.3a.8.8,0,0,0-.71.91c.1.1.3.1.71.21a.22.22,0,0,1,.2.2l.31,2a10.23,10.23,0,0,1-.1,1.53,5.76,5.76,0,0,1,.2,1,6.38,6.38,0,0,1-.2,1.62.77.77,0,0,0,.1.41v.71a.4.4,0,0,0-.1.31,14.18,14.18,0,0,0,.1,1.53l-.21,1.52v5.6c0,.1.11.51.21,1.42v.31a.76.76,0,0,0-.1.4,14.75,14.75,0,0,1-.11,2,24.48,24.48,0,0,1,.21,3.25l-.31,1.43v1c1.12,0,1.53,0,1.22.1a1.27,1.27,0,0,1,.92-.51c0,.1.41.2.3.3a6.07,6.07,0,0,0,1.84.21ZM60.42,45.08c-.1,0-.2.11-.3.21a.85.85,0,0,0,.2.81c.61.1.92-.1,1-.61ZM61,108.36a1.22,1.22,0,0,0-.61.11.54.54,0,0,0,.41.2Zm3.46-33h-.4a.37.37,0,0,1-.21.51h-.81c-.41.1-.61.1-.51.2l-.31-.2a3.64,3.64,0,0,0-1.22.51c.51.1.72.2.41.2.31-.3,1.22,0,2.85-.3.1-.1.1-.21,0-.51Zm-2.74-10c-.11-.2,0-.41.3-.71l.31-.41h.5a3.55,3.55,0,0,1,0,1.53C62.25,66.14,61.85,66,61.75,65.43Zm1.32-20.55c-.31-.1-.51-.2-.51-.3a.43.43,0,0,0,.3-.62.53.53,0,0,1-.4.31.78.78,0,0,1-.41-.2c-.1.91.61,1.12,1,1.42Zm-.71-1.63c.3,0,.5-.1.5-.2A.59.59,0,0,0,62.36,43.25Zm1.93,3.87a3.82,3.82,0,0,0-1.43-.2l-.3.61c.51.5.91.4,1.32.5Zm-.92,53.41c0-.41.21-.51.51-.41.1.11.1.21.1.51C63.88,100.53,63.68,100.53,63.37,100.53ZM65,77.13a.87.87,0,0,0-.71,0Zm.2,28.18a2.83,2.83,0,0,1-.91-.1.56.56,0,0,1,.2-.41.46.46,0,0,1,.51,0,.28.28,0,0,1,.31.31C65.2,105.21,65.2,105.21,65.2,105.31Zm-.3-59.82.3.31c.72,0,1-.21.92-.51A5.18,5.18,0,0,0,64.9,45.49Zm1.42,2.34c-.4-.1-.61,0-.61.31,0,.5.21.61.71.5A2.28,2.28,0,0,0,66.32,47.83Zm1.53,24.52c-.1.1-.41.1-.71.2l-.21-.2c-.1-.1-.2-.2-.3-.2-.31.4-.61.61-.92.5,0,.11.21.31.71.41.21.1.31.1.21.1a2,2,0,0,0,.91-.51Zm-1.12,1.93c-.51,0-.92.1-1,.31a2.33,2.33,0,0,0,.92.1,2,2,0,0,0,.91.41,1.06,1.06,0,0,0,.51-.61A7.62,7.62,0,0,0,66.73,74.28Zm-.61-9.76a1.07,1.07,0,0,0,.3.5A.55.55,0,0,0,66.12,64.52ZM68,76.62a3.46,3.46,0,0,0-1.83.51c.1,0,.3.61.41,1.12-.21,0,0-.2.61-.71a1.14,1.14,0,0,0,.91-.71C68,76.83,68,76.72,68,76.62ZM67.14,108c-.61,0-.92.1-1,.4a3.43,3.43,0,0,0,1.22.31C67.34,108.57,67.24,108.36,67.14,108Zm.2-57.28a.78.78,0,0,1-.2-.41.61.61,0,0,0-.31.61.71.71,0,0,0,.51.41C67.24,51.19,67.24,51,67.34,50.68Zm1.63,56c.1-.1.1-.1,0-.2s-.1-.1-.21-.1-.2.41-.3.41a1.2,1.2,0,0,1-.61-.11c0-.3.2-.5.71-.5-.1-.11-.1-.21-.2-.51V105l-.31-.21a3,3,0,0,0-.2,1.22,1.65,1.65,0,0,0-1,.51,1.53,1.53,0,0,0,.61.21l.51.91h.61c.1-.1.1-.41.2-.71Zm2.74,3.16a.59.59,0,0,0-.5-.2,2.31,2.31,0,0,0-.82.1,1,1,0,0,0-.3.81,3.49,3.49,0,0,1-1,.41A4.32,4.32,0,0,0,68,110.5a2.74,2.74,0,0,0-.1.71l-.51.51h1.83c-.1-.2,0-.41.1-.71a5.17,5.17,0,0,1,1.43-.1ZM67.85,46.3V46c-.31.3-.41.51-.41.71s.21.41.51.51C68.05,47.12,68,46.81,67.85,46.3Zm-.31,5.09c0,.21,0,.41.11.51.1-.41.2-.51.2-.41A.38.38,0,0,0,67.54,51.39Zm1.84,56.77a2.42,2.42,0,0,1-.41.61H67.54l.11.71a1.38,1.38,0,0,0,1.32-.3h.2v-.1h.21l.61-.51a.78.78,0,0,0,.2-.41A1.9,1.9,0,0,0,69.38,108.16ZM69.58,84c0-.31-1.22-.82-1.22-.82s-.71.61-.71,1.12H68c.1,0,.1-.61.41-.51a2.63,2.63,0,0,1,.51.21ZM67.85,55.77c0,.4.1.5.3.4C68.15,55.87,68.05,55.77,67.85,55.77Zm.1-8.45A.87.87,0,0,0,68,48l.61-.91A.86.86,0,0,1,68,47.32Zm.31,12.41a.55.55,0,0,0-.31-.4Zm.1,10.58v-.4c-.1.1-.31.2-.41.4Zm.51,8.14-.21.21h-.4l-.31.2c0,.31.2.41.51.41.51,0,.71-.21.81-.71A.7.7,0,0,1,68.87,78.45Zm-.51-6.61h-.31c.1.31.21.41.31.31Zm-.21,8.85c.11.1.11.21.11.41a.74.74,0,0,0,.61-.41ZM69,50.58a.58.58,0,0,0-.71.2.92.92,0,0,0,.71.31,1.2,1.2,0,0,0,.61-.11A.94.94,0,0,0,69,50.58Zm-.41,37.64c.1.1.2.1.2-.1s-.1-.2-.2-.1Zm0,2.75a.6.6,0,0,0,.1.4C68.76,91.17,68.66,91.07,68.56,91ZM69,73.06a1.12,1.12,0,0,1-.1.51A1.37,1.37,0,0,0,70,74a3.21,3.21,0,0,1,.2-.82A4.27,4.27,0,0,0,69,73.06Zm0,12.51c0,.21.2.41.51.62a.79.79,0,0,0,.1-.51A1.68,1.68,0,0,0,69,85.57Zm.1-10V76c.1.1.1.1.2.1A1.83,1.83,0,0,0,69.07,75.6Zm.1,23.81.41.2V98.9a.76.76,0,0,1,.1-.4C69.48,98.5,69.27,98.8,69.17,99.41Zm.21-53.21c-.11.31-.11.41,0,.41C69.48,46.3,69.48,46.2,69.38,46.2Zm.91,31.34c-.61,0-.91.2-.91.71a2,2,0,0,0,.81.1,3.93,3.93,0,0,0,1-.1C71.21,77.74,70.9,77.54,70.29,77.54Zm.31,2.85v-.72a1.77,1.77,0,0,1-.61-.1l-.31.31c0,.71.2,1,.51,1,.1,0,.2-.11.41-.21ZM70.7,64c0-.31-.1-.41-.31-.31s-.2.21-.1.31.2.4.1.51v.2a.42.42,0,0,0-.51.1c.11.1.11.1.21.1.3,0,.3-.2.61-.2Zm-.61-11.4c.3,0,.4-.1.51-.4C70.29,52.21,70.19,52.31,70.09,52.61Zm.3,6c0,.2.1.3.31.3a.22.22,0,0,0,.2-.2C70.8,58.62,70.7,58.62,70.39,58.62Zm0,14.24a.46.46,0,0,0,.51,0c.21,0,.31-.1.21-.31A1.33,1.33,0,0,0,70.39,72.86Zm.41-12.41c0-.11-.1-.11-.2-.21-.11.1,0,.31.1.51A.37.37,0,0,0,70.8,60.45Zm-.2,46.49v.51a.9.9,0,0,0,.81.2,2.6,2.6,0,0,1,.2-.71A1.74,1.74,0,0,0,70.6,106.94Zm.1-53.82c0,.1.1.2.41.2s.3-.1.3-.2Zm.71,47.72-.51-.41c-.3.3.21.51.31.61Zm-.2-53v-.51c-.21-.1-.31,0-.31.21Zm0,18.11c0,.1-.31.51-.31.81l.21.41c.3,0,.4-.2.5-.51a.87.87,0,0,0,0-.71ZM70.9,92.29a1.06,1.06,0,0,0,.31-.51A1.06,1.06,0,0,0,70.9,92.29Zm.71,14.45a2,2,0,0,0,.82-.51A.63.63,0,0,0,71.61,106.74Zm.51-28.18c-.3,0-.51.2-.41.5.11,0,.11.11.11.21.61,0,.91-.1.91-.41A.61.61,0,0,0,72.12,78.56Zm-.41-30.42c0,.3.11.5.21.5A.36.36,0,0,0,71.71,48.14ZM73.14,69.5v-.61c-.31,0-.61-.81-1-.81a2.86,2.86,0,0,0-.41,1c.11-.1.31-.1.62-.1a1.3,1.3,0,0,0,.5.61l.21-.1Zm-.61,16.07c-.1-.3-.2-.4-.1-.5.1.4-.51.71-.51.81Zm-.41,22.59c-.1.1.1.31.41.71.2.1.3.21.41.1C73,108.47,72.53,107.86,72.12,108.16Zm1.22-27.67c0-.21,0-.31-.1-.31a5.19,5.19,0,0,0-1.12.51c.1.41.51.61,1.12.51A2,2,0,0,0,73.34,80.49Zm-.51-23.3a2.36,2.36,0,0,0-.61.71c.11.1.31.1.61.21.11,0,.31-.21.41-.21C73.24,57.39,73.14,57.19,72.83,57.19Zm0,25.84c-.3,0-.5.1-.4.41.1.1.4.1.81,0C73.24,83.13,73.14,83,72.83,83Zm0,9c0-.3-.1-.5-.2-.5s-.2.2-.2.3Zm.11-31.53c.1-.21,0-.41-.21-.72a1,1,0,0,0-.2,1,4.46,4.46,0,0,0,.51.71A4.67,4.67,0,0,0,72.94,60.45Zm.4,3.76V64H73c-.1.3-.21.4-.21.51a.6.6,0,0,0,.72.2c.3-.1.4-.2.3-.51Zm.31,1.93-.2,1c-.11.51.1.71.4.81a6.84,6.84,0,0,0,.1-1.72A.35.35,0,0,0,73.65,66.14Zm.2,41.21a.75.75,0,0,0-.2-.41.77.77,0,0,0-.2.51.47.47,0,0,0,.3.51A1.84,1.84,0,0,0,73.85,107.35ZM74,94a1.81,1.81,0,0,0-.1.61c0,.31.1.41.41.51a.87.87,0,0,0,.2-.61,1.12,1.12,0,0,0-.1-.51Zm.41-11.6c0-.2-.1-.3-.41-.41a.46.46,0,0,0,0,.51c0,.31.11.41.31.41A.78.78,0,0,0,74.36,82.42ZM74,93c.41.1.61,0,.72-.41C74.26,92.49,74.06,92.59,74,93Zm.51-2.85-.3-.3a.61.61,0,0,0,.1.71A.52.52,0,0,0,74.46,90.15Zm-.3-2.64c-.1.2,0,.3.2.3C74.36,87.61,74.26,87.51,74.16,87.51Zm.3,15.46v-.1a2.9,2.9,0,0,0,0,1.32Z"/><path class="cls-4" d="M99.49,44.37c.1.1-.1.41-.51.92-.1-.1-.3,0-1,0a1.23,1.23,0,0,1-1.42,0,10.69,10.69,0,0,0-.92-.71c-.1,0-.1.1-.2.2-.31,1.42.71.41,1.83,1.73v.91c0,.11,0,.11-.1.21l-.2.51c-.61-.11.5.81-1.84.91l-.2-.1H94.4a30.31,30.31,0,0,1-5.08.1h-.41l-.1-.1c-1.33,0-2,.2-2,.71-.1,0-.1,0-.1.1a4,4,0,0,0,0,1.63,31.26,31.26,0,0,1,.1,3.26c-.1,1.22-.1,3-.1,5.08a.64.64,0,0,0-.1.41c0,.71.3,2.54.3,3.36,0,.3-.2,1-.2,1.42a7.23,7.23,0,0,1,.2,1.22v.31a.31.31,0,0,0-.1.2c.1.51.1,1.32.21,2.34l-.31,1.53a1.6,1.6,0,0,0,.2,1.22c0,.1.11.2.21.3a40.6,40.6,0,0,1,5,0v.11a7.06,7.06,0,0,1,2.14.4c.3.31.51,1.22.51,3s.1,2.55,0,2.44l-.31.62c-.1-.11-.3,0-.4.2H92.57L88,79.17h-.51c-.4.1-.5.1-.4.2V81.3c-.1.31-.1.92-.21,1.63a31.83,31.83,0,0,0,0,4.37,2.4,2.4,0,0,1,.11.82,17.8,17.8,0,0,1,0,3.46v1.73a13.66,13.66,0,0,0-.21,1.63v-.11a5.07,5.07,0,0,0,.1,1.12v5.29c-.1,4.48-.2,7.33-.2,8.65a18.65,18.65,0,0,1-.1,3.36c-.21.3-1.32.4-3.46.4H81.18v.11a.36.36,0,0,1-.31-.11c-.71,0-1.12-.2-1.12-.71a1.15,1.15,0,0,1,.1-.51v-1l-.2-.92a2.54,2.54,0,0,1-.1-.81,2.05,2.05,0,0,1,.1-.72c.1,0,.1,0,.2-.1a2.45,2.45,0,0,0,.31-.71l-.81-2.64v-.21c0-.1,0-.1-.11-.2v-.31a21.66,21.66,0,0,1,.11-2.34,2.08,2.08,0,0,1-.11-.91V99.82a1.89,1.89,0,0,0,.31-1c0,.41-.2-.61-.2-1v-.3l.1-1.93V95a.63.63,0,0,0-.1-.41c-.11-.1-.11-.41,0-.71a4.62,4.62,0,0,1-.11-1.22c-.1-.41,0-.61.11-.72s.1-.2-.11-.4a7.51,7.51,0,0,1,0-2.14c.11-.1.11-.41.21-.91.1-.11,0-.21-.1-.51V86.8c0-.31-.21-.92-.21-1.23a2.34,2.34,0,0,1,.1-.71,21.94,21.94,0,0,0,.11-4.17,3.21,3.21,0,0,0-.11-.91V78.05a3.3,3.3,0,0,0,.11-.92c-.11-.1-.11-.3-.11-.51V74.38a10.49,10.49,0,0,1,.31-4v-.21l.1-2.34c0-.1,0-.1-.1-.1a26.85,26.85,0,0,0,0-4.07,9,9,0,0,1-.41-2,6.88,6.88,0,0,1,0-2,.37.37,0,0,0,.1-.3l.11-1.63c.1-.51.3-.81.61-.71.61,0,.81.51.71,1.52v.61l-.21.21c0-.1.11,0,.21.2,0,.71.1,1,.2,1,.1-.31.2-.21.51-.92,0-.1.1-.2.31-.3a12.82,12.82,0,0,1,.1-2.75,1.45,1.45,0,0,0-.21-.31l-.2-.3h-.2l-.31-.2c-.1,0-.51.4-.51.4-.51,0-.91-.1-1-2-.11-2.65-.11-3.77-.11-3.46l.11-3.76a.6.6,0,0,1-.11-.41,26.67,26.67,0,0,1,.11-2.75l.61-.3a1.23,1.23,0,0,1,.4-.82h3.16a3.47,3.47,0,0,0,1-.1h2.55v.1c.51,0,.61.21.51.51,0-.1-.11,0-.31.2l-.2.11-.31.1v.1h-.2l-.31.2c0,.21.1.72.21,1.43a3.15,3.15,0,0,1,.81.2v.2a.36.36,0,0,0,.31.11c.1,0,.2,0,.2-.11,0-.3-.51-.5-.51-.81a8.86,8.86,0,0,1,.2-1l.51-.4.1-.11c1.33-.3,2.45-.61,3.26-.71a2,2,0,0,0,.71-.1h.82v.1c-.21,0,0,.1.51.21a1.42,1.42,0,0,0,.71-.31h1.62l.62.31.4.3a2.19,2.19,0,0,0,.51,1.12c.1-.1.31-.1.51-.2,0-.31.1-.41.41-.31l.3.31a1.13,1.13,0,0,1,.71-.21l.11.1ZM81.58,72.55a3.25,3.25,0,0,1-.71-.61v-.61c-.1-.1-.3,0-.51.1v.51c.1.1.21.1.51.21a2.34,2.34,0,0,0,.51.71Zm-.71-10.17h-.2A2.45,2.45,0,0,0,80.46,64a2.36,2.36,0,0,1,.72.1.25.25,0,0,0,.4-.1C81.28,63.8,81.07,63.29,80.87,62.38Zm3.87,2.75-.51.1-.31.2h-.2v.2h-.2a5.54,5.54,0,0,0-1.33-.1,10.7,10.7,0,0,0-1.73.1v.62c.11,0,.61-.11,1.63-.21a8.93,8.93,0,0,1,1.63-.1c.1,0,.61.2.71.2s.31-.1.51-.2C84.94,65.43,84.84,65.13,84.74,65.13ZM81.18,91.78c-.11,0-.21-.2-.31-.71,0-.1-.1-.2-.2-.41a3.89,3.89,0,0,0-.1,1,1.38,1.38,0,0,0,.3,1Zm.2-2.85c-.31,0-.41-.3-.41-.91,0,.1.1,0,.21-.41a1.72,1.72,0,0,1,.2-.51l-.1-.1c.1-.1.1-.2.1-.41s-.1-.3,0-.3a.22.22,0,0,0-.2-.21l-.31.51v.51c-.1.1-.1.2-.1.41l-.1,1.12c-.21.51.2.81,0,1l.2.21Zm.51-44.56c-.1,0-.71-.71-1.22-.61v.31a8.56,8.56,0,0,0,.71,1.22,7.81,7.81,0,0,1,1.32-.21.72.72,0,0,0,.41-.61.52.52,0,0,0-.2-.4A3.12,3.12,0,0,1,81.89,44.37Zm-.51,8.24c0-.1-.1-.1-.41-.2h-.3a1.46,1.46,0,0,0,.2.61c.51-.1.71-.2.61-.41Zm-.2,53.62c0-.21-.11-.31-.21-.31l-.3.61a1.15,1.15,0,0,1,.51.1Zm.2,1.32a.63.63,0,0,0-.41-.1,3.12,3.12,0,0,1-.3,1c0,.1.1.1.2.2a.19.19,0,0,1,0,.3c1.12.31,1.73.41,1.73.41A6.32,6.32,0,0,0,81.38,107.55Zm-.51-60.13c.1.31.2.51.31.51A1,1,0,0,0,80.87,47.42Zm1.12,53a1,1,0,0,0-.61-.51.52.52,0,0,0-.41.51,1.35,1.35,0,0,0,.21.61c0,.1-.11.1-.21.2a2.89,2.89,0,0,0-.1.92,4.91,4.91,0,0,0,.31,1.63l.2-.41h.1a.4.4,0,0,1,.1-.31,15.5,15.5,0,0,0-.1-1.73Zm1.12-4.17c-.31,0-.81-.41-1.53-1.12,0-.1-.1-.1-.2-.2a1.45,1.45,0,0,0-.2.71,2.72,2.72,0,0,0,.3,1.12l.71-.31a1.25,1.25,0,0,1,.21.81v.92h.1c.1.31.3.41.41.41s.1,0,.5-.82ZM81.79,98.7c0-.51-.1-.71-.41-.71a.6.6,0,0,0-.1.4,1.29,1.29,0,0,0,.1.61Zm-.21-21.16c0-.1-.1-.21-.2-.1-.1.3.51,1.12.61,1.12a1.52,1.52,0,0,0,.1-1.12C82,77.54,81.89,77.54,81.58,77.54ZM82,111c0-.1-.1-.2-.2-.1a2,2,0,0,0-.41,1.32,1.17,1.17,0,0,0,1,.2,2.17,2.17,0,0,0,1-.2A2.15,2.15,0,0,1,82,111ZM81.48,81.4l.31.41c.1-.1.1-.3.2-.61A.61.61,0,0,0,81.48,81.4Zm.1,3.06c-.1.1-.1.3-.1.61a2.83,2.83,0,0,0,.1.91c.31.1.51-.1.72-.41C82.09,85.47,81.89,85.07,81.58,84.46Zm.61-31.64a6.32,6.32,0,0,0,.21.91,1.77,1.77,0,0,0,.81-1.22Zm.31,38.55c-.31.11-.31.31-.2.61.2.11.4-.1.71-.4A.32.32,0,0,0,82.5,91.37ZM84.74,71a.53.53,0,0,0-.31-.41l-.4.51h-.62a3.67,3.67,0,0,1-.4-.92c-.1,0-.41-.61-.71-.51v.51l.2.31c.1.1.2.2.2.3s-.1.41-.1.82a3.7,3.7,0,0,0,1.12.4,2.19,2.19,0,0,0,.71-.71Zm-.21,17.9a1.86,1.86,0,0,1-.81-.4c-.1-.11-.41-.11-1,0,0,.1-.1.2-.2.3.1.2.61,1.42,1,1.53v-.51l.61-.61Zm.41,13.64v-1h-.2c-.1-.1-.21-.21-.21-.31a.77.77,0,0,1-.1.51v1.12c-.3.1-.2.31-1.93,1.42l.3,1a2.29,2.29,0,0,1,.72-.4,3.45,3.45,0,0,1,1.22.5l.2-.1c-.1-.1-.3-.1-.51-.2a3.31,3.31,0,0,1,.51-1.43v-.5c.1-.11.1-.21.1-.11A1.09,1.09,0,0,0,84.94,102.57Zm-1.22-52-.92-.41c-.1,0-.1,0-.1.1l.41.71.2.21c.1-.1.41-.1.72-.21h.4c.1,0,.21-.1.31-.2v-.1A2.62,2.62,0,0,0,83.72,50.58ZM82.8,99.31a.63.63,0,0,0,.51.2c.31,0,.41-.1.41-.4A3,3,0,0,0,82.8,99.31Zm.41-31-.3-.31c-.11.21,0,.41.1.72A.54.54,0,0,0,83.21,68.28Zm.31,5a2,2,0,0,0-.11,1.22l-.2.71-.2.1c-.1.1-.21.2-.1.3l.3.31a4.75,4.75,0,0,0,.2,1.22c-.1,0-.1.1-.2.31v.3c.1.1.1.1.1.2.1-.1.1-.3.21-.61a1.18,1.18,0,0,0,.2-.71V74.69c.2-.71.31-.92.31-.61C83.92,74.08,83.92,73.67,83.52,73.27Zm-.41,12.1c-.2.1-.31.2-.2.41.4,0,.61-.1.61-.31S83.31,85.27,83.11,85.37Zm.3-36.73c-.1.31-.5.21-.5.92a4.68,4.68,0,0,0,1.32-.3A1.07,1.07,0,0,0,83.41,48.64Zm-.1,44.57a.28.28,0,0,0-.4,0,1.34,1.34,0,0,0,.1.5.52.52,0,0,0,.71-.3C83.62,93.41,83.52,93.31,83.31,93.21Zm0-12.31a.76.76,0,0,0-.2.5.51.51,0,0,0,.41.51,1.59,1.59,0,0,0,0-1Zm.41-1.43c0-.2-.1-.3-.31-.3s-.1.2-.2.5a.48.48,0,0,0,.51.51A.87.87,0,0,0,83.72,79.47Zm.71,26.76h-.51a5,5,0,0,0-.4,1.32,4.53,4.53,0,0,1,.91.1c0-.1.1-.2.31-.3A5.75,5.75,0,0,0,84.43,106.23Zm-.4,5.69c-.11,0-.21.21-.51.51h.71a.22.22,0,0,0,.2-.2Zm1.32-66.23L85,44.78c.1-.51.21-.82.21-.92a2.75,2.75,0,0,0-1.33,0c-.1,0-.1.1-.2.21a5.31,5.31,0,0,1,.71,1.22c.71-.1.61.3.92,1.12.1-.11.2-.11.51-.11C85.86,46.2,85.65,46,85.35,45.69ZM84.74,60a3.29,3.29,0,0,0-.51.81.6.6,0,0,0,.2.72c-.1.1-.1.1,0,.1a.53.53,0,0,0,.31.4c0-.1.1-.71.2-1.83Zm.2-3.26a.81.81,0,0,0-.2-.51c0,.11-.1.11-.31.11a1.51,1.51,0,0,1-.2.61,1.05,1.05,0,0,0,.51.91,5,5,0,0,1-.51,1.43c.3,0,.41.4.71.4-.1-.1-.1-.5,0-1.42A3.94,3.94,0,0,0,84.94,56.78Zm-.51,43.14c-.1.1-.2.2-.2.31a.9.9,0,0,0,.3.61c.61-.11.82-.31.72-.72Zm.31-8.24h-.31c-.1.3,0,.51.31.71A.87.87,0,0,0,84.74,91.68Zm.71,5.19V95.34c0-.1,0-.1-.1-.2-.31.1-.61.51-.92,1,0,.1.1.1.21.2l.3.2.1.1Zm-.71-11.7a.55.55,0,0,0-.1.61,1.12,1.12,0,0,0,.3.51,3.58,3.58,0,0,1,.1-.92Zm.2-34c0-.1-.1-.1-.2,0,.1.1.2.2.3.2A.31.31,0,0,0,84.94,51.19Zm.51,27.06a.64.64,0,0,0-.51-.51,3.21,3.21,0,0,0-.2.82c.1.4.3.61.61.5A1.08,1.08,0,0,0,85.45,78.25Zm2.14-4.07c0-.1,0-.1-.11-.2a4.25,4.25,0,0,0-1.73,0,9.27,9.27,0,0,1,.11,1.52c.1,0,.2-.1.5-.4l.41-.31a7.89,7.89,0,0,0,1.53-.41Zm-1.23,2.95.21.2c.41,0,.51-.2.41-.5C86.87,76.72,86.67,76.83,86.36,77.13Zm1.94-.3a.37.37,0,0,0,.2.5A.76.76,0,0,0,88.3,76.83Zm2.34-31.34a2.64,2.64,0,0,0-1-.41l-.3.31c-.11.1-.11.1-.21,0v.81a8.24,8.24,0,0,1,2.24,0c0-.3.2-.4.2-.71Zm1,28.69a.38.38,0,0,0-.31.1c0,.31.1.41.31.41Zm.5,1.22a1.53,1.53,0,0,0-.1.71.46.46,0,0,0,.31.51c.3-.1.4-.2.4-.51a1.2,1.2,0,0,0-.2-.71Zm0-30.11c.31,0,.51-.31.61-.92C92.27,44.27,92.16,44.58,92.16,45.29Zm1.43.4c0,.11-.51.11-.51.41a4.34,4.34,0,0,1,.92.51A1.28,1.28,0,0,0,93.59,45.69Zm1.52-2.13a3.15,3.15,0,0,1-1,.1l-.82-.41-.1.41a1.45,1.45,0,0,0,1.22.61,2.46,2.46,0,0,0,.82-.2C95.11,44,95.11,43.86,95.11,43.56Zm-.91,3.86-.31-.3Z"/><circle class="cls-4" cx="131.85" cy="78.13" r="3.94"/></g></g></svg>