<svg xmlns="http://www.w3.org/2000/svg" xmlns:xlink="http://www.w3.org/1999/xlink" width="76" height="76" viewBox="0 0 76 76">
    <defs>
        <linearGradient id="c" x1="50%" x2="50%" y1="0%" y2="418.755%">
            <stop offset="0%" stop-color="#FFF"/>
            <stop offset="100%" stop-color="#879CC0"/>
        </linearGradient>
        <ellipse id="b" cx="37.744" cy="38" rx="37.744" ry="38"/>
        <filter id="a" width="202%" height="201.3%" x="-49.7%" y="-48%" filterUnits="objectBoundingBox">
            <feOffset dx="1" dy="2" in="SourceAlpha" result="shadowOffsetOuter1"/>
            <feGaussianBlur in="shadowOffsetOuter1" result="shadowBlurOuter1" stdDeviation="12.5"/>
            <feColorMatrix in="shadowBlurOuter1" values="0 0 0 0 0.267425519 0 0 0 0 0 0 0 0 0 0.328417304 0 0 0 0 0"/>
        </filter>
    </defs>
    <g fill="none" fill-rule="evenodd">
        <g>
            <use fill="#000" filter="url(#a)" xlink:href="#b"/>
            <use fill="url(#c)" xlink:href="#b"/>
        </g>
        <g stroke="#83139E" stroke-linecap="round" stroke-linejoin="round" stroke-width="1.5">
            <path d="M34 40v15.458c0 .851.672 1.542 1.5 1.542h3c.828 0 1.5-.69 1.5-1.542V40M37 47v10"/>
            <path d="M34.25 46h-.584c-.5 0-2.666-.45-2.666-2.621v-4.634c0-1.913 1.248-3.365 4.9-3.624v-.353c-.93-.493-1.249-1.53-1.249-2.73 0-1.678 1.251-3.038 2.795-3.038h.108c1.544 0 2.796 1.36 2.796 3.037 0 1.202-.32 2.238-1.25 2.73v.354c3.653.259 4.9 1.711 4.9 3.624v4.634C44 45.549 41.833 46 41.334 46h-.584M18 40v15.458c0 .851.672 1.542 1.5 1.542h3c.828 0 1.5-.69 1.5-1.542V40M21 47v10"/>
            <path d="M18.25 46h-.584c-.5 0-2.666-.45-2.666-2.621v-4.634c0-1.913 1.248-3.365 4.9-3.624v-.353c-.93-.493-1.249-1.53-1.249-2.73 0-1.678 1.251-3.038 2.795-3.038h.108c1.544 0 2.796 1.36 2.796 3.037 0 1.202-.32 2.238-1.25 2.73v.354c3.653.259 4.9 1.711 4.9 3.624v4.634C28 45.549 25.833 46 25.334 46h-.584M50 40v15.458c0 .851.672 1.542 1.5 1.542h3c.828 0 1.5-.69 1.5-1.542V40M53 47v10"/>
            <path d="M50.25 46h-.584c-.5 0-2.666-.45-2.666-2.621v-4.634c0-1.913 1.248-3.365 4.9-3.624v-.353c-.93-.493-1.249-1.53-1.249-2.73 0-1.678 1.251-3.038 2.795-3.038h.108c1.544 0 2.796 1.36 2.796 3.037 0 1.202-.32 2.238-1.25 2.73v.354c3.653.259 4.9 1.711 4.9 3.624v4.634C60 45.549 57.833 46 57.334 46h-.584M39 27c.577-1.087 1.928-1.846 4.454-2.025v-.345c-.912-.48-1.224-1.492-1.224-2.665 0-1.637 1.226-2.965 2.737-2.965h.107c1.511 0 2.738 1.328 2.738 2.965 0 1.173-.312 2.184-1.225 2.665v.345c2.468.175 3.815.903 4.413 1.95M23 27c.617-1.039 1.97-1.76 4.422-1.935v-.35c-.92-.488-1.234-1.514-1.234-2.705 0-1.662 1.235-3.01 2.758-3.01h.108c1.523 0 2.759 1.348 2.759 3.01 0 1.19-.315 2.217-1.235 2.705v.35c2.452.175 3.806.896 4.422 1.935"/>
        </g>
    </g>
</svg>
