<svg xmlns="http://www.w3.org/2000/svg" xmlns:xlink="http://www.w3.org/1999/xlink" width="76" height="76" viewBox="0 0 76 76">
    <defs>
        <linearGradient id="c" x1="50%" x2="50%" y1="0%" y2="418.755%">
            <stop offset="0%" stop-color="#FFF"/>
            <stop offset="100%" stop-color="#879CC0"/>
        </linearGradient>
        <ellipse id="b" cx="37.744" cy="38" rx="37.744" ry="38"/>
        <filter id="a" width="202%" height="201.3%" x="-49.7%" y="-48%" filterUnits="objectBoundingBox">
            <feOffset dx="1" dy="2" in="SourceAlpha" result="shadowOffsetOuter1"/>
            <feGaussianBlur in="shadowOffsetOuter1" result="shadowBlurOuter1" stdDeviation="12.5"/>
            <feColorMatrix in="shadowBlurOuter1" values="0 0 0 0 0.267425519 0 0 0 0 0 0 0 0 0 0.328417304 0 0 0 0 0"/>
        </filter>
    </defs>
    <g fill="none" fill-rule="evenodd">
        <g>
            <use fill="#000" filter="url(#a)" xlink:href="#b"/>
            <use fill="url(#c)" xlink:href="#b"/>
        </g>
        <g stroke="#83139E" stroke-linecap="round" stroke-linejoin="round" stroke-width="1.5">
            <path d="M26.897 23.1c0 1.16-2.216 2.1-4.949 2.1-2.733 0-4.948-.94-4.948-2.1 0-1.16 2.215-2.1 4.948-2.1 2.733 0 4.949.94 4.949 2.1zM17 51.1v2.8c0 1.16 2.215 2.1 4.948 2.1 2.733 0 4.949-.94 4.949-2.1v-2.8"/>
            <path d="M17 48.3v2.8c0 1.16 2.215 2.1 4.948 2.1 2.733 0 4.949-.94 4.949-2.1v-2.8"/>
            <path d="M17 45.5v2.8c0 1.16 2.215 2.1 4.948 2.1 2.733 0 4.949-.94 4.949-2.1v-2.8"/>
            <path d="M17 42.7v2.8c0 1.16 2.215 2.1 4.948 2.1 2.733 0 4.949-.94 4.949-2.1v-2.8"/>
            <path d="M17 39.9v2.8c0 1.16 2.215 2.1 4.948 2.1 2.733 0 4.949-.94 4.949-2.1v-2.8"/>
            <path d="M17 37.1v2.8c0 1.16 2.215 2.1 4.948 2.1 2.733 0 4.949-.94 4.949-2.1v-2.8"/>
            <path d="M17 34.3v2.8c0 1.16 2.215 2.1 4.948 2.1 2.733 0 4.949-.94 4.949-2.1v-2.8"/>
            <path d="M17 31.5v2.8c0 1.16 2.215 2.1 4.948 2.1 2.733 0 4.949-.94 4.949-2.1v-2.8"/>
            <path d="M17 28.7v2.8c0 1.16 2.215 2.1 4.948 2.1 2.733 0 4.949-.94 4.949-2.1v-2.8"/>
            <path d="M17 25.9v2.8c0 1.16 2.215 2.1 4.948 2.1 2.733 0 4.949-.94 4.949-2.1v-2.8"/>
            <path d="M17 23.1v2.8c0 1.16 2.215 2.1 4.948 2.1 2.733 0 4.949-.94 4.949-2.1v-2.8M58 23.1c0 1.16-2.215 2.1-4.948 2.1-2.733 0-4.949-.94-4.949-2.1 0-1.16 2.216-2.1 4.949-2.1 2.733 0 4.948.94 4.948 2.1zM48.103 51.1v2.8c0 1.16 2.216 2.1 4.949 2.1C55.785 56 58 55.06 58 53.9v-2.8"/>
            <path d="M48.103 48.3v2.8c0 1.16 2.216 2.1 4.949 2.1 2.733 0 4.948-.94 4.948-2.1v-2.8"/>
            <path d="M48.103 45.5v2.8c0 1.16 2.216 2.1 4.949 2.1 2.733 0 4.948-.94 4.948-2.1v-2.8"/>
            <path d="M48.103 42.7v2.8c0 1.16 2.216 2.1 4.949 2.1 2.733 0 4.948-.94 4.948-2.1v-2.8"/>
            <path d="M48.103 39.9v2.8c0 1.16 2.216 2.1 4.949 2.1 2.733 0 4.948-.94 4.948-2.1v-2.8"/>
            <path d="M48.103 37.1v2.8c0 1.16 2.216 2.1 4.949 2.1C55.785 42 58 41.06 58 39.9v-2.8"/>
            <path d="M48.103 34.3v2.8c0 1.16 2.216 2.1 4.949 2.1 2.733 0 4.948-.94 4.948-2.1v-2.8"/>
            <path d="M48.103 31.5v2.8c0 1.16 2.216 2.1 4.949 2.1 2.733 0 4.948-.94 4.948-2.1v-2.8"/>
            <path d="M48.103 28.7v2.8c0 1.16 2.216 2.1 4.949 2.1 2.733 0 4.948-.94 4.948-2.1v-2.8"/>
            <path d="M48.103 25.9v2.8c0 1.16 2.216 2.1 4.949 2.1 2.733 0 4.948-.94 4.948-2.1v-2.8"/>
            <path d="M48.103 23.1v2.8c0 1.16 2.216 2.1 4.949 2.1C55.785 28 58 27.06 58 25.9v-2.8M43.862 30.8H31.138M40.328 34.3l3.534-3.5M40.328 27.3l3.534 3.5M31.138 46.2h12.724M34.672 49.7l-3.534-3.5M34.672 42.7l-3.534 3.5"/>
        </g>
    </g>
</svg>
