<svg id="Capa_1" data-name="Capa 1" xmlns="http://www.w3.org/2000/svg" viewBox="0 0 100 100"><defs><style>.cls-1{fill:#f71e5a;}.cls-2{fill:#fff;}</style></defs><title>logo</title><circle class="cls-1" cx="50" cy="50" r="50"/><path class="cls-2" d="M124.29,143.42c0-.38,0-.75,0-1.13a7.93,7.93,0,0,1,.07-1.12c.06-.37.05-.75.1-1.12s.08-1,.17-1.52c.19-1,.37-2,.63-3a30.62,30.62,0,0,1,3.42-8.15,33.25,33.25,0,0,1,2.48-3.51,31.15,31.15,0,0,1,3-3.18,28.41,28.41,0,0,1,2.85-2.34,31.82,31.82,0,0,1,4.59-2.79,33.67,33.67,0,0,1,3.78-1.59,30.84,30.84,0,0,1,3.94-1.11c.75-.15,1.51-.25,2.27-.36.39-.06.78-.08,1.17-.16a8.6,8.6,0,0,1,1.64-.07.89.89,0,0,1,.92.67,5.32,5.32,0,0,1,.17,1c0,.29,0,.58,0,.87a4.54,4.54,0,0,0,.15,1.52,2.08,2.08,0,0,1,.08.81,1.35,1.35,0,0,1-.79,1.22,5,5,0,0,1-1.62.46,30.09,30.09,0,0,0-3,.47c-.7.16-1.39.35-2.08.53a17.83,17.83,0,0,0-2.31.83,23,23,0,0,0-2.45,1.18c-.69.38-1.36.79-2,1.23a20.77,20.77,0,0,0-2.23,1.71c-.51.45-1,.88-1.52,1.37a26.23,26.23,0,0,0-3.86,5,22.64,22.64,0,0,0-2.24,5,23.42,23.42,0,0,0-.74,3.24c-.09.61-.12,1.22-.23,1.82a2.24,2.24,0,0,0,0,.41c0,.77,0,1.54,0,2.31a17.94,17.94,0,0,0,.09,1.84,30.11,30.11,0,0,0,1.07,5.25,28.7,28.7,0,0,0,1.05,2.83,24.18,24.18,0,0,0,3,5.07c.33.43.71.83,1,1.26a18.47,18.47,0,0,0,1.52,1.59,19.76,19.76,0,0,0,2.27,1.91,25.08,25.08,0,0,0,6.51,3.41,38,38,0,0,0,4.15,1.11,12,12,0,0,0,1.32.18,1.79,1.79,0,0,0,.56,0,2.78,2.78,0,0,1,1,0,1.33,1.33,0,0,1,1.22,1.2,5.07,5.07,0,0,1,.11,1.32c0,.24-.05.47-.07.71s0,.38,0,.56a8.46,8.46,0,0,1-.09,1.53,2,2,0,0,1-.27.71.92.92,0,0,1-.66.45,4.53,4.53,0,0,1-1,0,36.07,36.07,0,0,1-4.39-.69,33.34,33.34,0,0,1-4.57-1.32,30.74,30.74,0,0,1-3-1.29c-.9-.44-1.78-.95-2.64-1.46a24.5,24.5,0,0,1-2.69-1.87c-.45-.36-.89-.74-1.34-1.11a30.49,30.49,0,0,1-2.57-2.51,22.69,22.69,0,0,1-1.95-2.37,31,31,0,0,1-5.53-13.09c-.13-.79-.23-1.58-.32-2.38A25.11,25.11,0,0,1,124.29,143.42Z" transform="translate(-100 -100)"/><path class="cls-2" d="M155.44,124.9h.62a13.34,13.34,0,0,1,1.93.16,16.48,16.48,0,0,1,2.21.44,16.66,16.66,0,0,1,3.17,1.16,18.28,18.28,0,0,1,2.54,1.43,17.45,17.45,0,0,1,2.23,1.79c.17.17.37.3.54.47.32.33.65.66.93,1,.51.64,1,1.28,1.48,2a18.45,18.45,0,0,1,2.41,5.24,23.17,23.17,0,0,1,.54,2.6,11.42,11.42,0,0,1,.07,1.48,1.11,1.11,0,0,1,0,.3,1.06,1.06,0,0,1-1,.87,1.93,1.93,0,0,1-.61,0,6,6,0,0,0-1.33-.07H169.9a2.39,2.39,0,0,1-1-.22,1.63,1.63,0,0,1-.82-.81,10.94,10.94,0,0,1-.65-2,12,12,0,0,0-1.73-3.92,12.54,12.54,0,0,0-1.94-2.24,13.31,13.31,0,0,0-3.19-2.12,12.61,12.61,0,0,0-3-1,8.77,8.77,0,0,0-2-.22,17.37,17.37,0,0,0-1.74.06,13.81,13.81,0,0,0-2.44.57,11.83,11.83,0,0,0-3.59,1.95,12.27,12.27,0,0,0-2.09,2.09,12.47,12.47,0,0,0-1.94,3.54,12.64,12.64,0,0,0-.61,2.64,17.37,17.37,0,0,0-.06,2.51,8.33,8.33,0,0,0,.2,1.47,12.4,12.4,0,0,0,2.4,5.27,11.83,11.83,0,0,0,7.69,4.47l.86.11a1.23,1.23,0,0,1,1.14.89,3.84,3.84,0,0,1,.11.91c0,.74,0,1.47,0,2.21a8,8,0,0,1-.22,1.46,1.45,1.45,0,0,1-1.43,1.11,5.42,5.42,0,0,1-1.62-.2,23.87,23.87,0,0,1-4-1.3,19,19,0,0,1-4.38-2.62,22.5,22.5,0,0,1-2.49-2.36,17,17,0,0,1-2.15-2.93,18.6,18.6,0,0,1-2-4.8c-.16-.63-.25-1.27-.38-1.9a17.76,17.76,0,0,1-.17-3.52,6.66,6.66,0,0,1,.09-1,25.29,25.29,0,0,1,.74-3.45,20.71,20.71,0,0,1,1.4-3.52,19.65,19.65,0,0,1,2.11-3.26,17.11,17.11,0,0,1,1.81-2,16.82,16.82,0,0,1,3.21-2.36,19.15,19.15,0,0,1,2-1,20.81,20.81,0,0,1,2.13-.74,19.57,19.57,0,0,1,3-.58A12.3,12.3,0,0,1,155.44,124.9Z" transform="translate(-100 -100)"/><path class="cls-2" d="M153.39,187.41l-1.89-.15-1.12-.1a25.81,25.81,0,0,1-2.63-.35c-1-.18-2-.38-3-.63-1.25-.31-2.47-.69-3.68-1.1a31.94,31.94,0,0,1-3.19-1.27c-.57-.26-1.16-.5-1.72-.79-.78-.4-1.54-.82-2.3-1.24-1.09-.6-2.13-1.3-3.16-2a33.48,33.48,0,0,1-3-2.26c-.47-.4-.94-.79-1.41-1.18l-.08-.07c-.68-.65-1.37-1.29-2-2-.49-.5-.94-1-1.4-1.56s-1-1.13-1.46-1.71-1-1.3-1.48-2a38.59,38.59,0,0,1-2.15-3.3c-.52-.88-1-1.79-1.45-2.71a43.33,43.33,0,0,1-3.27-9,44.35,44.35,0,0,1-.83-4.37c-.08-.59-.13-1.18-.19-1.78s-.15-1.32-.21-2a8.31,8.31,0,0,1,0-1.18,1,1,0,0,1,.88-1.06,1.52,1.52,0,0,1,.3-.06c.56,0,1.12-.09,1.68-.09a7.39,7.39,0,0,0,1.37-.14,1.63,1.63,0,0,1,1.81.85,3.73,3.73,0,0,1,.43,1.31c.09.69.18,1.38.26,2.08s.24,1.65.39,2.47c.2,1.07.43,2.14.71,3.2a43.51,43.51,0,0,0,1.41,4.33,35.71,35.71,0,0,0,1.6,3.6,37.66,37.66,0,0,0,2.78,4.54c.59.82,1.22,1.6,1.85,2.38.31.38.67.73,1,1.1l.51.57c.16.18.33.35.5.51s.62.59.94.86c.62.54,1.23,1.08,1.87,1.59a32,32,0,0,0,2.7,1.94c.86.55,1.74,1.08,2.65,1.55.7.36,1.39.73,2.11,1q1.33.59,2.7,1.11c.81.31,1.64.58,2.48.83s1.68.47,2.53.66c1.1.24,2.21.44,3.31.64.45.08.91.12,1.37.18l2.28.27a1.62,1.62,0,0,1,.72.26,1.18,1.18,0,0,1,.51.74,3.36,3.36,0,0,1,.11.7,7.54,7.54,0,0,1-.06,1.63,3,3,0,0,0,0,.77,5.07,5.07,0,0,1-.11,1.12,1.25,1.25,0,0,1-1.24,1.09c-.24,0-.48,0-.72,0Z" transform="translate(-100 -100)"/><path class="cls-2" d="M168,154.38a1.31,1.31,0,0,0-.23-.54,4.56,4.56,0,0,1-.62-1.56,3.44,3.44,0,0,1,.36-2.32,5.22,5.22,0,0,1,2.48-2.21,5.46,5.46,0,0,1,1.66-.5,3.72,3.72,0,0,1,2.34.34,2.44,2.44,0,0,1,1,1,3.66,3.66,0,0,1,.4,2.13,5,5,0,0,1-1.4,2.89,9.72,9.72,0,0,1-2.3,1.86,1.13,1.13,0,0,0-.16.15l.24.28a6.3,6.3,0,0,1,1.21,1.88,4,4,0,0,1,.27,1.35,3.07,3.07,0,0,1-.29,1.44,4.09,4.09,0,0,1-2,2,6.68,6.68,0,0,1-2.28.71,5.19,5.19,0,0,1-2.62-.31,3,3,0,0,1-1.9-2.25,3.7,3.7,0,0,1,.11-1.82,8.17,8.17,0,0,1,1.57-2.79,8.46,8.46,0,0,1,2-1.7Zm.49.72a.92.92,0,0,0-.45.33,6.86,6.86,0,0,0-1.05,1.69,4.56,4.56,0,0,0-.45,2,1.45,1.45,0,0,0,1.11,1.43,3.08,3.08,0,0,0,2.29-.24,1.39,1.39,0,0,0,.73-1.21,2.91,2.91,0,0,0-.31-1.43,8.6,8.6,0,0,0-1.14-1.82A2.54,2.54,0,0,0,168.52,155.09Zm2.4-.1a2.57,2.57,0,0,0,.85-.61,5.92,5.92,0,0,0,1.33-2.73,2.54,2.54,0,0,0,0-1.32,1,1,0,0,0-.84-.74,2.8,2.8,0,0,0-2.57,1,1.82,1.82,0,0,0-.45,1.42,3.57,3.57,0,0,0,.32,1.13,6.54,6.54,0,0,0,1,1.52A4.36,4.36,0,0,0,170.92,155Z" transform="translate(-100 -100)"/><path class="cls-2" d="M174,159.28c.07-.69.11-1.43.23-2.15a21.11,21.11,0,0,1,.48-2.3,14,14,0,0,1,1.81-4.17,9,9,0,0,1,1.16-1.43,5.72,5.72,0,0,1,3.44-1.68,2.62,2.62,0,0,1,2.86,1.62,4.26,4.26,0,0,1,.39,1.74c0,.26.07.51.06.76,0,.51,0,1-.1,1.53a16.84,16.84,0,0,1-.85,3.73,13.94,13.94,0,0,1-1.86,3.69,7.31,7.31,0,0,1-2.4,2.2,4.32,4.32,0,0,1-2.63.51,2.54,2.54,0,0,1-1.72-1,4.11,4.11,0,0,1-.74-1.83C174,160.11,174,159.71,174,159.28Zm8.06-6.95c0-.14,0-.27,0-.41a3.73,3.73,0,0,0-.33-1.43,1,1,0,0,0-.89-.59,1.91,1.91,0,0,0-.94.19,3.45,3.45,0,0,0-1.29,1.07,7.9,7.9,0,0,0-1,1.82,21,21,0,0,0-1.3,4.35,6.49,6.49,0,0,0,0,2.14,1.56,1.56,0,0,0,.52,1,.69.69,0,0,0,.61.18,2.27,2.27,0,0,0,.81-.3,6.82,6.82,0,0,0,1.6-1.49,10.45,10.45,0,0,0,1.19-2A10.8,10.8,0,0,0,182,152.34Z" transform="translate(-100 -100)"/><path class="cls-2" d="M161.12,163.27a.64.64,0,0,1-.56,0,2.53,2.53,0,0,1-1.49-1,1.87,1.87,0,0,1-.24-1.52,8.71,8.71,0,0,1,.51-1.56c.58-1.51,1.18-3,1.77-4.53s1-2.79,1.48-4.2a4,4,0,0,0,.24-1,3.13,3.13,0,0,0-1.25.66,5.93,5.93,0,0,0-1,1,1.43,1.43,0,0,1-.61-2,3.18,3.18,0,0,1,.78-.88,5,5,0,0,1,2.59-1,1.47,1.47,0,0,1,1,.24,3.31,3.31,0,0,1,.86.86,1.36,1.36,0,0,1,.2,1.13c-.16.65-.31,1.3-.51,1.93q-.58,1.8-1.22,3.59c-.43,1.19-.88,2.37-1.33,3.55-.25.65-.53,1.3-.76,2a5.93,5.93,0,0,0-.43,2.25C161.15,162.9,161.12,163.09,161.12,163.27Z" transform="translate(-100 -100)"/><path class="cls-2" d="M188.4,143.46a2.24,2.24,0,0,1-1.84,2.21,1.65,1.65,0,0,1-1.78-1.13,1.26,1.26,0,0,1,0-.45,3.27,3.27,0,0,1,.47-1.29,1.75,1.75,0,0,1,2-.73,2.34,2.34,0,0,1,.81.44A1.27,1.27,0,0,1,188.4,143.46Zm-.93.17a.6.6,0,0,0-.38-.66.85.85,0,0,0-.79,0,1.12,1.12,0,0,0-.56,1.21.63.63,0,0,0,.15.26.79.79,0,0,0,1,.15A1.1,1.1,0,0,0,187.47,143.63Z" transform="translate(-100 -100)"/></svg>